<?xml version="1.0" encoding="UTF-8" standalone="no"?>
<!DOCTYPE svg PUBLIC "-//W3C//DTD SVG 1.1//EN"
 "http://www.w3.org/Graphics/SVG/1.1/DTD/svg11.dtd">
<!-- Generated by graphviz version 2.40.1 (20161225.0304)
 -->
<!-- Title: dependencies Pages: 1 -->
<svg width="504pt" height="284pt"
 viewBox="0.00 0.00 504.00 284.00" xmlns="http://www.w3.org/2000/svg" xmlns:xlink="http://www.w3.org/1999/xlink">
<g id="graph0" class="graph" transform="scale(1 1) rotate(0) translate(4 280)">
<title>dependencies</title>
<polygon fill="#ffffff" stroke="transparent" points="-4,4 -4,-280 500,-280 500,4 -4,4"/>
<text text-anchor="start" x="227.0091" y="-42.4" font-family="sans-serif" font-weight="bold" font-size="14.00" fill="#000000">Legend</text>
<polygon fill="#ffffb3" stroke="transparent" points="14,-10 14,-30 34,-30 34,-10 14,-10"/>
<text text-anchor="start" x="37.629" y="-15.4" font-family="sans-serif" font-size="14.00" fill="#000000"> &#160;Declarations</text>
<polygon fill="#8dd3c7" stroke="transparent" points="127,-10 127,-30 147,-30 147,-10 127,-10"/>
<text text-anchor="start" x="150.7251" y="-15.4" font-family="sans-serif" font-size="14.00" fill="#000000"> &#160;Module</text>
<polygon fill="#80b1d3" stroke="transparent" points="213,-10 213,-30 233,-30 233,-10 213,-10"/>
<text text-anchor="start" x="236.7812" y="-15.4" font-family="sans-serif" font-size="14.00" fill="#000000"> &#160;Bootstrap</text>
<polygon fill="#fdb462" stroke="transparent" points="310,-10 310,-30 330,-30 330,-10 310,-10"/>
<text text-anchor="start" x="333.6732" y="-15.4" font-family="sans-serif" font-size="14.00" fill="#000000"> &#160;Providers</text>
<polygon fill="#fb8072" stroke="transparent" points="406,-10 406,-30 426,-30 426,-10 406,-10"/>
<text text-anchor="start" x="429.7258" y="-15.4" font-family="sans-serif" font-size="14.00" fill="#000000"> &#160;Exports</text>
<g id="clust1" class="cluster">
<title>cluster_TooltipsModule</title>
<polygon fill="none" stroke="#000000" stroke-dasharray="1,5" points="95,-70 95,-268 401,-268 401,-70 95,-70"/>
</g>
<g id="clust2" class="cluster">
<title>cluster_TooltipsModule_declarations</title>
<polygon fill="none" stroke="#000000" points="103,-78 103,-130 393,-130 393,-78 103,-78"/>
</g>
<g id="clust6" class="cluster">
<title>cluster_TooltipsModule_exports</title>
<polygon fill="none" stroke="#000000" points="175,-208 175,-260 303,-260 303,-208 175,-208"/>
</g>
<!-- TooltipBoxComponent -->
<g id="node1" class="node">
<title>TooltipBoxComponent</title>
<polygon fill="#ffffb3" stroke="#000000" points="384.8934,-122 239.1066,-122 239.1066,-86 384.8934,-86 384.8934,-122"/>
<text text-anchor="middle" x="312" y="-99.8" font-family="Times,serif" font-size="14.00" fill="#000000">TooltipBoxComponent</text>
</g>
<!-- TooltipsModule -->
<g id="node3" class="node">
<title>TooltipsModule</title>
<polygon fill="#8dd3c7" stroke="#000000" points="292.219,-187 289.219,-191 268.219,-191 265.219,-187 185.781,-187 185.781,-151 292.219,-151 292.219,-187"/>
<text text-anchor="middle" x="239" y="-164.8" font-family="Times,serif" font-size="14.00" fill="#000000">TooltipsModule</text>
</g>
<!-- TooltipBoxComponent&#45;&gt;TooltipsModule -->
<g id="edge1" class="edge">
<title>TooltipBoxComponent&#45;&gt;TooltipsModule</title>
<path fill="none" stroke="#000000" d="M265.5814,-122.1061C265.5814,-122.1061 265.5814,-140.991 265.5814,-140.991"/>
<polygon fill="#000000" stroke="#000000" points="262.0814,-140.9909 265.5814,-150.991 269.0814,-140.991 262.0814,-140.9909"/>
</g>
<!-- TooltipDirective -->
<g id="node2" class="node">
<title>TooltipDirective</title>
<polygon fill="#ffffb3" stroke="#000000" points="220.8076,-122 111.1924,-122 111.1924,-86 220.8076,-86 220.8076,-122"/>
<text text-anchor="middle" x="166" y="-99.8" font-family="Times,serif" font-size="14.00" fill="#000000">TooltipDirective</text>
</g>
<!-- TooltipDirective&#45;&gt;TooltipsModule -->
<g id="edge2" class="edge">
<title>TooltipDirective&#45;&gt;TooltipsModule</title>
<path fill="none" stroke="#000000" d="M203.2721,-122.1061C203.2721,-122.1061 203.2721,-140.991 203.2721,-140.991"/>
<polygon fill="#000000" stroke="#000000" points="199.7722,-140.9909 203.2721,-150.991 206.7722,-140.991 199.7722,-140.9909"/>
</g>
<!-- TooltipDirective  -->
<g id="node4" class="node">
<title>TooltipDirective </title>
<polygon fill="#fb8072" stroke="#000000" points="295.3074,-252 182.6926,-252 182.6926,-216 295.3074,-216 295.3074,-252"/>
<text text-anchor="middle" x="239" y="-229.8" font-family="Times,serif" font-size="14.00" fill="#000000">TooltipDirective </text>
</g>
<!-- TooltipsModule&#45;&gt;TooltipDirective  -->
<g id="edge3" class="edge">
<title>TooltipsModule&#45;&gt;TooltipDirective </title>
<path fill="none" stroke="#000000" stroke-dasharray="5,2" d="M239,-187.1061C239,-187.1061 239,-205.991 239,-205.991"/>
<polygon fill="#000000" stroke="#000000" points="235.5001,-205.9909 239,-215.991 242.5001,-205.991 235.5001,-205.9909"/>
</g>
</g>
</svg>
